# xmcd CD database file
#
# Track frame offsets:
#	150
#	16463
#	22585
#	38150
#	50285
#	62208
#	75405
#	94788
#	106960
#	122755
#	136708
#	166865
#	187883
#	201250
#
# Disc length: 2895 seconds
#
# Revision: 0
# Processed by: cddbd v1.5.2PL0 Copyright (c) Steve Scherf et al.
# Submitted via: CDex 1.51
#
DISCID=a40b4d0e
DTITLE=Louis Armstrong - Welcome to Jazz
DYEAR=1900
DGENRE=Jazz
TTITLE0=Hello Dolly
TTITLE1=Tiger Rag
TTITLE2=Mack the knife
TTITLE3=When the saints go marchin´ in
TTITLE4=Jeepers Creepers
TTITLE5=Ain´t misbehavin´
TTITLE6=Black and blue
TTITLE7=Struttin´ with some barbecue
TTITLE8=La vie en rose
TTITLE9=C´est si bon
TTITLE10=New Orleans function
TTITLE11=Tea for two
TTITLE12=Moon river
TTITLE13=High society
EXTD=
EXTT0=
EXTT1=
EXTT2=
EXTT3=
EXTT4=
EXTT5=
EXTT6=
EXTT7=
EXTT8=
EXTT9=
EXTT10=
EXTT11=
EXTT12=
EXTT13=
PLAYORDER=
